<svg xmlns="http://www.w3.org/2000/svg" width="1em" height="1em" fill="none" viewBox="0 0 16 16" class="ones-icon ones-icon-non-scaling-stroke" stroke-width="2"><path fill="currentColor" fill-rule="evenodd" d="M13.583 1.169a2 2 0 0 0-1.796-.55L3.05 2.318a2 2 0 0 0-1.484 1.242l-.658 1.7a2 2 0 0 0 1.038 2.542l4.3 1.954 1.954 4.3a2 2 0 0 0 2.542 1.037l1.7-.657a2 2 0 0 0 1.242-1.484l1.697-8.738a2 2 0 0 0-.549-1.796l-1.248-1.248ZM2.773 5.98l.657-1.7 8.739-1.697 1.248 1.248-1.697 8.739-1.7.657-1.954-4.3a2 2 0 0 0-.994-.993L2.773 5.98l-.933-.36.933.36ZM1.5 10.5a1 1 0 0 1 1.447-.894l2 1a1 1 0 0 1 .447.447l1 2A1 1 0 0 1 5.5 14.5h-3a1 1 0 0 1-1-1v-3Z" clip-rule="evenodd"></path></svg>