<svg width="221" height="86" viewBox="0 0 221 86" fill="none" xmlns="http://www.w3.org/2000/svg">
<g clip-path="url(#clip0_50_242)">
<path d="M63.18 64.2475C62.6731 71.5288 54.1652 75.21 48.5107 70.5946L17.4401 45.2337C12.2961 41.035 13.3145 32.902 19.335 30.1012L53.2703 14.3146C59.4846 11.4237 66.5208 16.2627 66.0447 23.0999L63.18 64.2475Z" fill="url(#paint0_linear_50_242)"/>
<path d="M75.6055 71.0592C69.4164 74.1339 62.2148 69.3749 62.6165 62.4758L64.8653 23.8589C65.1426 19.0976 69.086 15.3793 73.8554 15.3821L107.223 15.4018C113.673 15.4056 118.025 21.993 115.499 27.9273L104.212 54.4373C103.373 56.41 101.856 58.0181 99.9359 58.972L75.6055 71.0592Z" fill="url(#paint1_linear_50_242)"/>
<path d="M206.839 63.9779C210.25 70.9576 203.81 78.6894 196.329 76.5966L155.909 65.2897C149.828 63.5887 147.344 56.3182 151.112 51.2516L172.17 22.9367C176.193 17.5266 184.518 18.2984 187.478 24.3561L206.839 63.9779Z" fill="url(#paint2_linear_50_242)"/>
<path d="M109.855 57.7535C105.517 55.8197 103.428 50.8468 105.084 46.3947L116.993 14.3866C118.575 10.1352 123.073 7.72539 127.489 8.76409L163.537 17.2437C169.498 18.646 172.349 25.4634 169.159 30.6915L147.624 65.9957C145.267 69.8585 140.409 71.3713 136.276 69.5293L109.855 57.7535Z" fill="url(#paint3_linear_50_242)"/>
<path fill-rule="evenodd" clip-rule="evenodd" d="M55.9895 50.3179C58.6053 47.5313 60.0614 43.8528 60.0614 40.0307H50.937C50.937 41.5326 50.3648 42.978 49.3369 44.073C48.309 45.1681 46.9026 45.8303 45.4037 45.9252C43.9048 46.02 42.4261 45.5403 41.2684 44.5836C40.1107 43.6269 39.3609 42.2651 39.1716 40.7752C38.9822 39.2853 39.3676 37.7793 40.2493 36.5634C41.131 35.3476 42.4427 34.5133 43.9177 34.2303C45.3926 33.9472 46.92 34.2367 48.1891 35.0399C48.6491 35.331 48.9264 35.5728 49.1603 35.7768C49.5717 36.1357 49.8488 36.3774 50.7492 36.5634L59.5837 36.2716C58.6278 32.571 56.2981 29.3735 53.0684 27.3297C49.8387 25.2858 45.9517 24.5491 42.1982 25.2694C38.4446 25.9896 35.1064 28.1128 32.8626 31.2069C30.6189 34.3011 29.6382 38.1338 30.1199 41.9254C30.6017 45.717 32.5098 49.1826 35.4561 51.6173C38.4024 54.0519 42.1655 55.2728 45.9799 55.0314C49.7944 54.79 53.3736 53.1046 55.9895 50.3179Z" fill="white"/>
<path fill-rule="evenodd" clip-rule="evenodd" d="M93.2546 52.2728C91.5601 53.0649 89.6836 53.5408 87.6976 53.6217C79.6809 53.9481 72.9175 47.7139 72.5911 39.6972C72.2646 31.6805 78.4988 24.917 86.5155 24.5906C94.5323 24.2642 101.296 30.4984 101.622 38.5151C101.626 38.604 101.629 38.6928 101.631 38.7814L102.211 53.0307L93.3003 53.3936L93.2546 52.2728ZM92.7165 39.0573C92.745 42.0742 90.3711 44.5884 87.3353 44.7121C84.2397 44.8381 81.6281 42.4308 81.502 39.3353C81.376 36.2397 83.7832 33.6281 86.8788 33.502C89.9147 33.3784 92.4851 35.6914 92.702 38.7006L92.7165 39.0573Z" fill="white"/>
<path fill-rule="evenodd" clip-rule="evenodd" d="M146.708 33.4486C148.26 40.324 143.944 47.1556 137.069 48.7074C135.365 49.092 133.664 49.1162 132.045 48.8305L134.024 57.5986L126.382 59.3234L121.841 39.2051C121.831 39.1596 121.82 39.1139 121.81 39.0682C120.258 32.1928 124.574 25.3612 131.449 23.8094C138.324 22.2575 145.156 26.5732 146.708 33.4486ZM129.481 37.4708L129.462 37.3843L129.46 37.3846C129.457 37.3708 129.454 37.3569 129.451 37.343C128.851 34.6881 130.518 32.0502 133.173 31.451C135.828 30.8517 138.466 32.5182 139.065 35.173C139.664 37.8279 137.998 40.4659 135.343 41.0651C132.731 41.6546 130.135 40.0511 129.481 37.4708Z" fill="white"/>
<path fill-rule="evenodd" clip-rule="evenodd" d="M192.391 38.0803L185.18 35.2935L182.012 43.4915C180.842 42.3668 179.434 41.4511 177.825 40.8294C171.338 38.3221 164.047 41.5486 161.539 48.0359C159.032 54.5232 162.259 61.8148 168.746 64.322C175.221 66.8245 182.497 63.6152 185.018 57.1528L185.019 57.1535L192.391 38.0803ZM177.822 54.3285C176.854 56.8335 174.038 58.0793 171.533 57.1112C169.028 56.143 167.782 53.3275 168.75 50.8225C169.718 48.3175 172.534 47.0716 175.039 48.0398C177.544 49.0079 178.79 51.8235 177.822 54.3285Z" fill="white"/>
</g>
<defs>
<linearGradient id="paint0_linear_50_242" x1="23.7482" y1="13.4376" x2="80.7209" y2="57.1455" gradientUnits="userSpaceOnUse">
<stop stop-color="#FB9090"/>
<stop offset="1" stop-color="#F6ECC7"/>
</linearGradient>
<linearGradient id="paint1_linear_50_242" x1="93.1865" y1="13.8002" x2="89.3565" y2="79.5696" gradientUnits="userSpaceOnUse">
<stop stop-color="#56BFEA"/>
<stop offset="1" stop-color="#96F0DF"/>
</linearGradient>
<linearGradient id="paint2_linear_50_242" x1="209.127" y1="32.0043" x2="171.434" y2="82.6877" gradientUnits="userSpaceOnUse">
<stop stop-color="#54BEEC"/>
<stop offset="1" stop-color="#97A1DF"/>
</linearGradient>
<linearGradient id="paint3_linear_50_242" x1="151.61" y1="6.56368" x2="119.285" y2="63.9694" gradientUnits="userSpaceOnUse">
<stop stop-color="#64F4A0"/>
<stop offset="1" stop-color="#EBDF4B"/>
</linearGradient>
<clipPath id="clip0_50_242">
<rect width="221" height="86" fill="white"/>
</clipPath>
</defs>
</svg>
