<svg xmlns="http://www.w3.org/2000/svg" xmlns:xlink="http://www.w3.org/1999/xlink" viewBox="0 0 94.5 56.72"><defs><style>.cls-1{isolation:isolate;}.cls-2{fill:#7a62a8;}.cls-3,.cls-4{mix-blend-mode:multiply;}.cls-3{fill:url(#linear-gradient);}.cls-4{fill:url(#linear-gradient-2);}</style><linearGradient id="linear-gradient" x1="28.41" y1="24.78" x2="37.39" y2="32.47" gradientUnits="userSpaceOnUse"><stop offset="0" stop-color="#fff"/><stop offset="1" stop-color="#a58abe"/></linearGradient><linearGradient id="linear-gradient-2" x1="48.96" y1="25" x2="59.58" y2="27.4" xlink:href="#linear-gradient"/></defs><g class="cls-1"><g id="图层_1" data-name="图层 1"><path class="cls-2" d="M24.39,45.43A12.86,12.86,0,1,1,33,23c.7.63,7.91,8.45,12.15,13.05l-4.93,4.54C36,36,29.15,28.62,28.44,27.93a6.16,6.16,0,1,0,0,9.25l4.44,5A12.86,12.86,0,0,1,24.39,45.43Z"/><path class="cls-3" d="M33,23a12.9,12.9,0,0,0-5.15-2.79l-3.44,6.24h0a6.14,6.14,0,0,1,4.05,1.52c.71.69,7.57,8.11,11.73,12.63L45.1,36C40.86,31.42,33.65,23.6,33,23Z"/><path class="cls-2" d="M50.23,45.43A12.86,12.86,0,1,1,63.09,32.57,12.88,12.88,0,0,1,50.23,45.43Zm0-19a6.16,6.16,0,1,0,6.16,6.16A6.17,6.17,0,0,0,50.23,26.41Z"/><path class="cls-2" d="M74.82,45.43A12.86,12.86,0,1,1,87.68,32.57,12.88,12.88,0,0,1,74.82,45.43Zm0-19A6.16,6.16,0,1,0,81,32.57,6.17,6.17,0,0,0,74.82,26.41Z"/><path class="cls-4" d="M59.84,29.9,61,25.56a12.83,12.83,0,0,0-10.76-5.85A12.69,12.69,0,0,0,47.6,20v7a6.14,6.14,0,0,1,8.79,5.56C56.63,32.3,59.84,29.9,59.84,29.9Z"/><rect class="cls-2" x="56.39" y="15.76" width="6.7" height="16.81"/></g></g></svg>